<svg width="257" height="50" viewBox="0 0 257 50" fill="none" xmlns="http://www.w3.org/2000/svg">
<path d="M33.9327 26.912L24.2847 2.72L14.7327 26.912L6.76469 4.4H0.188688L13.9167 39.776L24.2847 16.064L34.6527 39.776L48.3807 4.4H41.8047L33.9327 26.912ZM57.8104 38.48C60.3704 38.48 62.5624 37.984 64.3864 36.992C66.2424 35.968 67.7464 34.464 68.8984 32.48L64.3864 30.704C63.6824 31.888 62.8024 32.768 61.7464 33.344C60.6904 33.92 59.4584 34.208 58.0504 34.208C56.7064 34.208 55.5704 33.92 54.6424 33.344C53.7144 32.736 53.0104 31.888 52.5304 30.8C52.0504 29.68 51.8104 28.336 51.8104 26.768C51.8104 25.552 51.9544 24.496 52.2424 23.6C52.5304 22.672 52.9304 21.904 53.4424 21.296C53.9864 20.656 54.6264 20.176 55.3624 19.856C56.1304 19.536 57.0104 19.376 58.0024 19.376C59.0904 19.376 60.0344 19.616 60.8344 20.096C61.6664 20.576 62.3064 21.248 62.7544 22.112C63.2344 22.976 63.4744 24 63.4744 25.184C63.4744 25.408 63.4104 25.68 63.2824 26C63.1864 26.32 63.0744 26.576 62.9464 26.768L64.5784 24.56H49.6024V28.16H69.0424C69.0424 28.032 69.0424 27.84 69.0424 27.584C69.0744 27.296 69.0904 27.008 69.0904 26.72C69.0904 24.352 68.6424 22.336 67.7464 20.672C66.8824 18.976 65.6344 17.68 64.0024 16.784C62.3704 15.888 60.3864 15.44 58.0504 15.44C56.2904 15.44 54.7064 15.712 53.2984 16.256C51.8904 16.8 50.6744 17.584 49.6504 18.608C48.6584 19.6 47.8904 20.816 47.3464 22.256C46.8024 23.664 46.5304 25.232 46.5304 26.96C46.5304 29.264 46.9944 31.28 47.9224 33.008C48.8504 34.736 50.1624 36.08 51.8584 37.04C53.5544 38 55.5384 38.48 57.8104 38.48ZM79.0786 0.559999H73.8466V38H79.0786V0.559999ZM97.3666 26.96C97.3666 24.528 96.8706 22.464 95.8786 20.768C94.8866 19.04 93.5746 17.728 91.9426 16.832C90.3106 15.904 88.5346 15.44 86.6146 15.44C85.2386 15.44 83.9746 15.712 82.8226 16.256C81.6706 16.768 80.6786 17.52 79.8466 18.512C79.0146 19.504 78.3586 20.72 77.8786 22.16C77.4306 23.568 77.2066 25.168 77.2066 26.96C77.2066 28.752 77.4306 30.368 77.8786 31.808C78.3586 33.216 79.0146 34.416 79.8466 35.408C80.6786 36.4 81.6706 37.168 82.8226 37.712C83.9746 38.224 85.2386 38.48 86.6146 38.48C88.5346 38.48 90.3106 38.032 91.9426 37.136C93.5746 36.208 94.8866 34.88 95.8786 33.152C96.8706 31.424 97.3666 29.36 97.3666 26.96ZM91.9906 26.96C91.9906 28.432 91.6866 29.696 91.0786 30.752C90.4706 31.776 89.6706 32.576 88.6786 33.152C87.6866 33.696 86.5826 33.968 85.3666 33.968C84.6306 33.968 83.8786 33.824 83.1106 33.536C82.3746 33.216 81.7026 32.768 81.0946 32.192C80.4866 31.584 79.9906 30.848 79.6066 29.984C79.2546 29.088 79.0786 28.08 79.0786 26.96C79.0786 25.84 79.2546 24.848 79.6066 23.984C79.9906 23.088 80.4866 22.352 81.0946 21.776C81.7026 21.168 82.3746 20.72 83.1106 20.432C83.8786 20.112 84.6306 19.952 85.3666 19.952C86.5826 19.952 87.6866 20.24 88.6786 20.816C89.6706 21.36 90.4706 22.16 91.0786 23.216C91.6866 24.24 91.9906 25.488 91.9906 26.96ZM117.08 4.4V38H122.888V4.4H117.08ZM127.928 38C130.488 38 132.824 37.6 134.936 36.8C137.048 36 138.872 34.864 140.408 33.392C141.944 31.92 143.128 30.16 143.96 28.112C144.792 26.032 145.208 23.728 145.208 21.2C145.208 18.672 144.792 16.384 143.96 14.336C143.128 12.256 141.944 10.48 140.408 9.008C138.872 7.536 137.048 6.4 134.936 5.6C132.824 4.8 130.488 4.4 127.928 4.4H120.584V9.728H127.784C129.448 9.728 130.984 9.968 132.392 10.448C133.8 10.928 135.032 11.648 136.088 12.608C137.144 13.568 137.96 14.768 138.536 16.208C139.112 17.648 139.4 19.312 139.4 21.2C139.4 23.088 139.112 24.752 138.536 26.192C137.96 27.632 137.144 28.832 136.088 29.792C135.032 30.752 133.8 31.472 132.392 31.952C130.984 32.432 129.448 32.672 127.784 32.672H120.584V38H127.928ZM159.904 38.48C162.464 38.48 164.656 37.984 166.48 36.992C168.336 35.968 169.84 34.464 170.992 32.48L166.48 30.704C165.776 31.888 164.896 32.768 163.84 33.344C162.784 33.92 161.552 34.208 160.144 34.208C158.8 34.208 157.664 33.92 156.736 33.344C155.808 32.736 155.104 31.888 154.624 30.8C154.144 29.68 153.904 28.336 153.904 26.768C153.904 25.552 154.048 24.496 154.336 23.6C154.624 22.672 155.024 21.904 155.536 21.296C156.08 20.656 156.72 20.176 157.456 19.856C158.224 19.536 159.104 19.376 160.096 19.376C161.184 19.376 162.128 19.616 162.928 20.096C163.76 20.576 164.4 21.248 164.848 22.112C165.328 22.976 165.568 24 165.568 25.184C165.568 25.408 165.504 25.68 165.376 26C165.28 26.32 165.168 26.576 165.04 26.768L166.672 24.56H151.696V28.16H171.136C171.136 28.032 171.136 27.84 171.136 27.584C171.168 27.296 171.184 27.008 171.184 26.72C171.184 24.352 170.736 22.336 169.84 20.672C168.976 18.976 167.728 17.68 166.096 16.784C164.464 15.888 162.48 15.44 160.144 15.44C158.384 15.44 156.8 15.712 155.392 16.256C153.984 16.8 152.768 17.584 151.744 18.608C150.752 19.6 149.984 20.816 149.44 22.256C148.896 23.664 148.624 25.232 148.624 26.96C148.624 29.264 149.088 31.28 150.016 33.008C150.944 34.736 152.256 36.08 153.952 37.04C155.648 38 157.632 38.48 159.904 38.48ZM177.14 30.752L174.116 33.776C174.756 34.64 175.556 35.44 176.516 36.176C177.476 36.912 178.58 37.52 179.828 38C181.108 38.448 182.5 38.672 184.004 38.672C185.604 38.672 186.996 38.384 188.18 37.808C189.364 37.232 190.276 36.432 190.916 35.408C191.556 34.352 191.876 33.136 191.876 31.76C191.876 30.416 191.556 29.328 190.916 28.496C190.308 27.664 189.492 26.976 188.468 26.432C187.444 25.856 186.324 25.328 185.108 24.848C184.212 24.496 183.396 24.16 182.66 23.84C181.924 23.52 181.348 23.168 180.932 22.784C180.516 22.368 180.308 21.888 180.308 21.344C180.308 20.736 180.548 20.272 181.028 19.952C181.508 19.632 182.116 19.472 182.852 19.472C183.94 19.472 184.996 19.76 186.02 20.336C187.076 20.88 187.956 21.568 188.66 22.4L191.54 19.328C190.932 18.592 190.18 17.936 189.284 17.36C188.42 16.752 187.46 16.288 186.404 15.968C185.348 15.616 184.212 15.44 182.996 15.44C181.652 15.44 180.404 15.664 179.252 16.112C178.1 16.56 177.172 17.232 176.468 18.128C175.764 18.992 175.412 20.096 175.412 21.44C175.412 22.784 175.716 23.888 176.324 24.752C176.964 25.584 177.764 26.272 178.724 26.816C179.716 27.328 180.708 27.776 181.7 28.16C182.692 28.512 183.556 28.864 184.292 29.216C185.028 29.568 185.604 29.968 186.02 30.416C186.436 30.864 186.644 31.408 186.644 32.048C186.644 32.752 186.372 33.328 185.828 33.776C185.316 34.192 184.596 34.4 183.668 34.4C182.932 34.4 182.196 34.256 181.46 33.968C180.724 33.68 180.004 33.28 179.3 32.768C178.596 32.224 177.876 31.552 177.14 30.752ZM196.284 7.136C196.284 8.032 196.604 8.784 197.244 9.392C197.884 10 198.652 10.304 199.548 10.304C200.476 10.304 201.244 10 201.852 9.392C202.492 8.784 202.812 8.032 202.812 7.136C202.812 6.24 202.492 5.488 201.852 4.88C201.244 4.272 200.476 3.968 199.548 3.968C198.652 3.968 197.884 4.272 197.244 4.88C196.604 5.488 196.284 6.24 196.284 7.136ZM197.004 15.92V38H202.092V15.92H197.004ZM207.978 39.488C208.042 41.408 208.522 43.088 209.418 44.528C210.346 46 211.658 47.152 213.354 47.984C215.05 48.816 217.098 49.232 219.498 49.232C221.514 49.232 223.386 48.816 225.114 47.984C226.842 47.152 228.234 45.856 229.29 44.096C230.378 42.368 230.922 40.176 230.922 37.52V15.92H225.834V37.52C225.834 39.184 225.514 40.544 224.874 41.6C224.266 42.656 223.466 43.44 222.474 43.952C221.482 44.464 220.442 44.72 219.354 44.72C218.106 44.72 217.018 44.48 216.09 44C215.194 43.552 214.49 42.928 213.978 42.128C213.466 41.36 213.194 40.48 213.162 39.488H207.978ZM207.546 26.864C207.546 29.264 208.042 31.312 209.034 33.008C210.026 34.704 211.338 36 212.97 36.896C214.602 37.792 216.378 38.24 218.298 38.24C219.674 38.24 220.938 37.984 222.09 37.472C223.242 36.96 224.234 36.224 225.066 35.264C225.898 34.272 226.538 33.072 226.986 31.664C227.466 30.256 227.706 28.656 227.706 26.864C227.706 25.072 227.466 23.472 226.986 22.064C226.538 20.656 225.898 19.456 225.066 18.464C224.234 17.472 223.242 16.72 222.09 16.208C220.938 15.696 219.674 15.44 218.298 15.44C216.378 15.44 214.602 15.888 212.97 16.784C211.338 17.68 210.026 18.976 209.034 20.672C208.042 22.368 207.546 24.432 207.546 26.864ZM212.922 26.864C212.922 25.392 213.226 24.144 213.834 23.12C214.442 22.096 215.242 21.312 216.234 20.768C217.258 20.224 218.362 19.952 219.546 19.952C220.282 19.952 221.018 20.112 221.754 20.432C222.522 20.72 223.21 21.152 223.818 21.728C224.426 22.304 224.906 23.024 225.258 23.888C225.642 24.752 225.834 25.744 225.834 26.864C225.834 27.984 225.642 28.976 225.258 29.84C224.906 30.704 224.426 31.424 223.818 32C223.21 32.576 222.522 33.008 221.754 33.296C221.018 33.584 220.282 33.728 219.546 33.728C218.362 33.728 217.258 33.472 216.234 32.96C215.242 32.416 214.442 31.632 213.834 30.608C213.226 29.584 212.922 28.336 212.922 26.864ZM251.559 24.56V38H256.887V23.984C256.887 22.192 256.583 20.672 255.975 19.424C255.399 18.144 254.535 17.168 253.383 16.496C252.263 15.792 250.871 15.44 249.207 15.44C247.703 15.44 246.391 15.76 245.271 16.4C244.151 17.04 243.239 18.016 242.535 19.328V15.92H237.351V38H242.535V24.56C242.535 23.568 242.743 22.704 243.159 21.968C243.575 21.232 244.151 20.656 244.887 20.24C245.655 19.824 246.519 19.616 247.479 19.616C248.407 19.616 249.175 19.808 249.783 20.192C250.391 20.576 250.839 21.136 251.127 21.872C251.415 22.576 251.559 23.472 251.559 24.56Z" fill="white"/>
</svg>
